 <svg version="1.1" id="Layer_1" xmlns="http://www.w3.org/2000/svg" xmlns:xlink="http://www.w3.org/1999/xlink" x="0px" y="0px"
                viewBox="0 0 454.6 170.5" style="enable-background:new 0 0 454.6 170.5;" xml:space="preserve">
                <path fill="currentColor" d="M441.5,123.6c0,0-76.5-56.7-125.5-78.2C266.9,24,218.7,11,190.6,7.5l31.1,29.5c0,0-58.5,13.8-99.1,34.7
                C82,92.7,36.8,117,13.1,138.4c0,0,73.3-21.6,142.3-10.7c69,10.9,95.8,13.8,155.8,40.5c0,0-72-68-106.5-81.5c0,0,51.1-16.5,133.1,4.9
                C337.8,91.6,393.8,101.9,441.5,123.6z"/>
              </svg>