<svg xmlns="http://www.w3.org/2000/svg" viewBox="0 0 352 512"><!--!Font Awesome Free 6.5.2 by @fontawesome - https://fontawesome.com License - https://fontawesome.com/license/free Copyright 2024 Fonticons, Inc.--><path fill="#5e5e5e" d="M96.1 454.4c0 6.3 1.9 12.5 5.4 17.7l17.1 25.7a32 32 0 0 0 26.6 14.3h61.7a32 32 0 0 0 26.6-14.3l17.1-25.7a32 32 0 0 0 5.4-17.7l0-38.4H96l.1 38.4zM0 176c0 44.4 16.5 84.9 43.6 115.8 16.5 18.9 42.4 58.2 52.2 91.5 0 .3 .1 .5 .1 .8h160.2c0-.3 .1-.5 .1-.8 9.9-33.2 35.7-72.6 52.2-91.5C335.6 260.9 352 220.4 352 176 352 78.6 272.9-.3 175.5 0 73.4 .3 0 83 0 176zm176-80c-44.1 0-80 35.9-80 80 0 8.8-7.2 16-16 16s-16-7.2-16-16c0-61.8 50.2-112 112-112 8.8 0 16 7.2 16 16s-7.2 16-16 16z"/></svg>