<svg xmlns="http://www.w3.org/2000/svg" viewBox="0 0 640 512"><!--!Font Awesome Free 6.5.2 by @fontawesome - https://fontawesome.com License - https://fontawesome.com/license/free Copyright 2024 Fonticons, Inc.--><path fill="#5e5e5e" d="M640 130.9V96c0-17.7-14.3-32-32-32H32C14.3 64 0 78.3 0 96v34.9c18.6 6.6 32 24.2 32 45.1s-13.4 38.5-32 45.1V320h640v-98.9c-18.6-6.6-32-24.2-32-45.1s13.4-38.5 32-45.1zM224 256h-64V128h64v128zm128 0h-64V128h64v128zm128 0h-64V128h64v128zM0 448h64v-26.7c0-8.8 7.2-16 16-16s16 7.2 16 16V448h128v-26.7c0-8.8 7.2-16 16-16s16 7.2 16 16V448h128v-26.7c0-8.8 7.2-16 16-16s16 7.2 16 16V448h128v-26.7c0-8.8 7.2-16 16-16s16 7.2 16 16V448h64v-96H0v96z"/></svg>